<svg width="72" height="72" viewBox="0 0 72 72" xmlns="http://www.w3.org/2000/svg"><g fill="#00B22D" fill-rule="evenodd"><circle opacity=".1" cx="36" cy="36" r="36"/><path d="M51.041 39.792l-2.104-1.215a12.591 12.591 0 000-3.154l2.104-1.215c.618-.357.916-1.09.713-1.774a15.973 15.973 0 00-3.712-6.426 1.549 1.549 0 00-1.9-.276l-2.1 1.213c-.84-.64-1.758-1.17-2.732-1.58V22.94a1.55 1.55 0 00-1.192-1.508 16.113 16.113 0 00-7.405 0 1.55 1.55 0 00-1.192 1.508v2.426c-.974.41-1.892.94-2.732 1.58l-2.1-1.213a1.549 1.549 0 00-1.9.276 15.973 15.973 0 00-3.712 6.426 1.545 1.545 0 00.713 1.774l2.104 1.215a12.592 12.592 0 000 3.154l-2.104 1.215a1.545 1.545 0 00-.713 1.774 15.973 15.973 0 003.712 6.426c.493.52 1.279.634 1.9.276l2.1-1.213c.84.64 1.758 1.17 2.732 1.58v2.426a1.55 1.55 0 001.192 1.508 16.11 16.11 0 007.405 0 1.55 1.55 0 001.192-1.508v-2.426c.974-.41 1.891-.94 2.732-1.58l2.1 1.213a1.551 1.551 0 001.9-.276 15.973 15.973 0 003.712-6.426 1.545 1.545 0 00-.713-1.774zm-4.224 6.481l-2.988-1.725c-1.741 1.489-2.359 1.863-4.583 2.65v3.45a14.01 14.01 0 01-5.66 0v-3.45c-2.17-.767-2.798-1.123-4.584-2.65l-2.988 1.725a13.936 13.936 0 01-2.834-4.9l2.99-1.725c-.422-2.285-.423-3.01 0-5.296l-2.99-1.725a13.945 13.945 0 012.834-4.901l2.988 1.726c1.766-1.512 2.391-1.875 4.583-2.65v-3.45a13.986 13.986 0 015.66 0v3.45c2.193.775 2.818 1.139 4.584 2.65l2.988-1.726a13.944 13.944 0 012.834 4.901l-2.99 1.725c.422 2.286.423 3.01 0 5.296l2.99 1.725a13.935 13.935 0 01-2.834 4.9zM36.415 30.806A6.2 6.2 0 0030.222 37a6.2 6.2 0 006.193 6.194A6.2 6.2 0 0042.61 37a6.2 6.2 0 00-6.194-6.194zm0 10.323A4.134 4.134 0 0132.286 37a4.134 4.134 0 014.13-4.129A4.134 4.134 0 0140.543 37a4.134 4.134 0 01-4.129 4.13z" fill-rule="nonzero"/></g></svg>