<svg width="72" height="72" viewBox="0 0 72 72" xmlns="http://www.w3.org/2000/svg"><g fill="none" fill-rule="evenodd"><circle fill="#E5F7EA" cx="36" cy="36" r="36"/><path d="M51.301 21.191a.745.745 0 00-.549-.549c-2.451-.598-3.15-.642-5.302-.642-4.279 0-7.99 2.8-10.841 5.988h-7.953a1.98 1.98 0 00-1.722.992l-4.66 7.985c-.773 1.328.188 3 1.722 3h5.159a53.526 53.526 0 00-1.16 2.782.743.743 0 00.168.798l4.223 4.223a.745.745 0 00.798.169 51.21 51.21 0 002.782-1.16v5.165c0 1.54 1.672 2.5 3 1.721l7.985-4.66a2.001 2.001 0 00.992-1.721v-7.953c3.188-2.851 5.988-6.563 5.988-10.842.007-2.152-.037-2.857-.63-5.296zM21.996 35.97l4.66-7.985h6.306c-2.027 2.658-3.655 5.508-4.872 7.985h-6.094zM35.97 49.942v-6.095c2.476-1.216 5.327-2.838 7.984-4.872v6.307l-7.984 4.66zm-4.747-6.157l-3.063-3.063c2.92-7.255 9.544-18.726 17.298-18.726 1.54 0 2.326 0 4.085.406.4 1.759.4 2.538.4 4.085 0 7.754-11.484 14.378-18.72 17.298zm11.733-18.296a3.495 3.495 0 00-3.493 3.493 3.495 3.495 0 003.493 3.494 3.495 3.495 0 003.493-3.494 3.495 3.495 0 00-3.493-3.493zm0 4.99a1.501 1.501 0 01-1.497-1.497c0-.823.674-1.497 1.497-1.497.824 0 1.497.674 1.497 1.497 0 .824-.673 1.498-1.497 1.498z" fill="#00B22D" fill-rule="nonzero"/></g></svg>