<svg width="72" height="72" viewBox="0 0 72 72" xmlns="http://www.w3.org/2000/svg"><g fill="none" fill-rule="evenodd"><circle fill="#E5F7EA" cx="36" cy="36" r="36"/><path d="M57.33 33.913L49.716 23.44A3.5 3.5 0 0046.885 22h-19.77a3.5 3.5 0 00-2.83 1.441L16.67 33.913A3.5 3.5 0 0016 35.97V46.5a3.5 3.5 0 003.5 3.5h35a3.5 3.5 0 003.5-3.5V35.971a3.5 3.5 0 00-.67-2.058zm-31.158-9.1c.22-.3.57-.48.944-.48h19.768c.372 0 .725.18.944.48l6.438 8.854h-9.958l-2.333 4.666h-9.95l-2.333-4.666h-9.958l6.438-8.853zm29.495 12.354V46.5c0 .643-.524 1.167-1.167 1.167h-35a1.168 1.168 0 01-1.167-1.167v-9.333c0-.645.523-1.167 1.167-1.167h8.75l2.333 4.667h12.834L45.75 36h8.75c.644 0 1.167.522 1.167 1.167z" fill="#00B22D" fill-rule="nonzero"/></g></svg>