<svg width="72" height="72" viewBox="0 0 72 72" xmlns="http://www.w3.org/2000/svg"><g fill="none" fill-rule="evenodd"><circle fill="#E5F7EA" cx="36" cy="36" r="36"/><path d="M38.405 41.022l-3.164-.95c-.363-.108-.617-.476-.617-.895 0-.51.373-.927.83-.927h1.976c.32 0 .63.09.902.262.227.142.517.134.712-.052l.826-.788a.563.563 0 00-.04-.854 4.026 4.026 0 00-2.206-.798v-1.708a.562.562 0 00-.562-.562h-1.125a.562.562 0 00-.563.563v1.695c-1.66.045-3 1.445-3 3.17 0 1.404.913 2.658 2.22 3.05l3.165.95c.362.108.616.476.616.895 0 .51-.372.927-.83.927H35.57c-.32 0-.63-.09-.901-.262-.228-.142-.518-.134-.713.052l-.826.788a.563.563 0 00.04.854 4.03 4.03 0 002.206.798v1.708c0 .31.252.562.563.562h1.125c.31 0 .562-.252.562-.563v-1.695c1.66-.045 3-1.445 3-3.17 0-1.404-.912-2.658-2.22-3.05zM28.062 24.75h7.875a.563.563 0 00.563-.562v-1.125a.562.562 0 00-.563-.563h-7.874a.562.562 0 00-.563.563v1.125c0 .31.252.562.563.562zm8.438 3.938v-1.125a.562.562 0 00-.563-.563h-7.874a.562.562 0 00-.563.563v1.125c0 .31.252.562.563.562h7.875c.31 0 .562-.252.562-.562zm12.509-3.799l-5.898-5.898A3.375 3.375 0 0040.728 18H26.374A3.386 3.386 0 0023 21.381v29.245A3.376 3.376 0 0026.374 54h20.252A3.376 3.376 0 0050 50.626V27.279c0-.892-.359-1.757-.991-2.39zm-8.007-4.598c.197.05.373.148.52.296l5.898 5.898c.148.147.246.323.296.52h-6.714V20.29zm6.749 30.335a1.13 1.13 0 01-1.125 1.125H26.374a1.128 1.128 0 01-1.125-1.125V21.38c0-.618.507-1.131 1.125-1.131h12.378v7.317a1.68 1.68 0 001.688 1.683h7.31v21.376z" fill="#00B22D" fill-rule="nonzero"/></g></svg>