<svg width="72" height="72" viewBox="0 0 72 72" xmlns="http://www.w3.org/2000/svg"><g fill="none" fill-rule="evenodd"><circle fill="#E5F7EA" cx="36" cy="36" r="36"/><path d="M51.143 26.857h-8V23.43A3.432 3.432 0 0039.714 20h-6.857a3.432 3.432 0 00-3.428 3.429v3.428h-8A3.43 3.43 0 0018 30.286V48.57A3.43 3.43 0 0021.429 52h29.714a3.43 3.43 0 003.428-3.429V30.286a3.43 3.43 0 00-3.428-3.429zM31.714 23.43c0-.631.514-1.143 1.143-1.143h6.857c.63 0 1.143.512 1.143 1.143v3.428h-9.143V23.43zm-6.857 26.285H21.43a1.146 1.146 0 01-1.143-1.143V30.286c0-.629.514-1.143 1.143-1.143h3.428v20.571zm20.572 0H27.143V29.143h18.286v20.571zm6.857-1.143c0 .629-.515 1.143-1.143 1.143h-3.429V29.143h3.429c.628 0 1.143.514 1.143 1.143V48.57z" fill="#08B433" fill-rule="nonzero"/></g></svg>